<?xml version="1.0" standalone="no"?>
<!DOCTYPE svg PUBLIC "-//W3C//DTD SVG 20010904//EN"
 "http://www.w3.org/TR/2001/REC-SVG-20010904/DTD/svg10.dtd">
<svg version="1.0" xmlns="http://www.w3.org/2000/svg"
 width="512.000000pt" height="512.000000pt" viewBox="0 0 512.000000 512.000000"
 preserveAspectRatio="xMidYMid meet">
<metadata>
Created by potrace 1.16, written by Peter Selinger 2001-2019
</metadata>
<g transform="translate(0.000000,512.000000) scale(0.100000,-0.100000)"
fill="#000000" stroke="none">
<path d="M1587 3512 c-21 -23 -23 -119 -3 -144 17 -23 58 -23 79 0 26 28 23
122 -3 145 -26 22 -53 22 -73 -1z"/>
<path d="M2072 3510 c-29 -28 -32 -118 -4 -143 25 -23 55 -21 77 3 14 15 17
31 13 74 -7 80 -42 107 -86 66z"/>
<path d="M3339 2779 c-11 -11 -18 -27 -15 -36 3 -8 6 -23 6 -33 0 -41 184
-104 205 -70 3 6 15 10 26 10 10 0 19 5 19 10 0 6 7 10 16 10 23 0 54 38 54
65 0 37 -30 65 -62 58 -16 -3 -28 -9 -28 -14 0 -12 -55 -39 -78 -39 -10 0 -39
13 -63 30 -53 35 -53 36 -80 9z"/>
<path d="M2265 2649 c-4 -13 -23 -39 -41 -56 -19 -18 -34 -37 -34 -41 0 -5 -8
-19 -17 -30 -10 -12 -29 -37 -43 -57 -33 -47 -91 -66 -120 -40 -11 10 -20 22
-20 28 0 5 -8 17 -18 26 -10 9 -24 31 -31 49 -8 17 -17 32 -22 32 -4 0 -10 9
-14 19 -10 34 -46 37 -71 7 -13 -14 -28 -26 -34 -26 -5 0 -10 -9 -10 -21 0
-39 -48 -105 -89 -120 -17 -7 -30 -5 -46 5 -28 18 -95 88 -95 99 0 9 -10 21
-57 75 -18 20 -33 40 -33 44 0 4 -25 8 -56 8 l-56 0 6 -32 c4 -18 11 -34 16
-36 6 -2 10 -12 10 -23 0 -10 5 -19 10 -19 6 0 10 -9 10 -20 0 -11 4 -20 8
-20 5 0 17 -16 28 -35 10 -19 21 -35 24 -35 3 0 11 -15 19 -32 8 -18 27 -44
44 -58 16 -13 36 -38 44 -54 18 -35 70 -88 128 -131 22 -17 51 -42 65 -56 14
-14 41 -33 61 -43 32 -15 38 -15 67 -1 17 9 42 29 56 45 14 17 30 30 36 30 10
0 44 28 109 90 14 14 39 43 56 65 16 22 37 47 47 56 10 9 18 21 18 28 0 6 5
11 10 11 6 0 10 7 10 15 0 9 11 26 25 39 14 13 25 31 25 40 0 9 5 16 10 16 6
0 10 8 10 18 0 10 8 27 18 38 20 22 42 69 42 89 0 11 -11 15 -38 15 -21 0 -43
5 -49 11 -8 8 -13 5 -18 -12z"/>
<path d="M1010 2471 c-5 -11 -10 -29 -10 -40 0 -11 -4 -23 -10 -26 -6 -4 -10
-210 -10 -586 0 -490 2 -583 14 -595 11 -11 48 -14 165 -14 l151 0 0 479 c0
309 -4 482 -10 486 -5 3 -10 15 -10 26 0 10 -4 19 -10 19 -5 0 -10 6 -10 14 0
11 -236 256 -247 256 -1 0 -7 -9 -13 -19z"/>
<path d="M2628 2418 c-38 -39 -68 -72 -68 -74 0 -2 -25 -28 -55 -57 -30 -29
-55 -59 -55 -66 0 -6 -7 -26 -16 -42 -13 -27 -16 -95 -17 -500 l-2 -469 114 0
c90 0 112 3 103 12 -14 14 -18 768 -3 768 5 0 11 18 15 40 3 22 11 40 16 40 6
0 10 9 10 20 0 11 5 20 10 20 6 0 10 6 10 13 1 15 35 57 48 57 5 0 12 45 16
101 5 81 3 104 -9 122 -8 12 -15 31 -15 42 0 20 -18 46 -29 44 -4 -1 -36 -33
-73 -71z"/>
<path d="M3258 2422 c-10 -2 -18 -12 -18 -23 0 -20 -67 -69 -95 -69 -8 0 -15
-3 -15 -6 0 -13 99 -104 114 -104 9 0 16 -4 16 -10 0 -5 9 -10 19 -10 11 0 23
-4 26 -10 3 -5 22 -10 41 -10 19 0 34 -5 34 -11 0 -20 273 1 286 22 3 5 14 9
25 9 10 0 19 5 19 10 0 6 7 10 15 10 17 0 105 79 105 95 0 5 -20 19 -43 31
-23 12 -48 33 -55 48 -15 30 -13 30 -76 11 -28 -8 -58 -12 -69 -9 -10 3 -39
-2 -63 -11 -41 -16 -47 -16 -69 -1 -15 10 -46 16 -79 16 -30 0 -57 4 -60 9 -7
11 -36 18 -58 13z"/>
</g>
</svg>
